<svg width="2433" height="836" viewBox="0 0 2433 836" fill="none" xmlns="http://www.w3.org/2000/svg">
<rect x="88" y="82" width="2248" height="648" rx="324" fill="#E4CD87"/>
<path d="M697.141 388.642H637.703C629.496 388.642 622.844 395.299 622.844 403.501C622.844 411.704 629.496 418.361 637.703 418.361H697.141C705.348 418.361 712 411.704 712 403.501C712 395.299 705.348 388.642 697.141 388.642Z" fill="#5B5B51"/>
<path d="M688.78 465.762L632.934 445.434C625.212 442.631 616.692 446.603 613.884 454.315C611.08 462.017 615.048 470.546 622.765 473.355L678.616 493.687C686.333 496.491 694.853 492.509 697.661 484.806C700.469 477.099 696.497 468.57 688.78 465.762Z" fill="#5B5B51"/>
<path d="M632.928 361.553L688.78 341.226C696.492 338.422 700.464 329.888 697.66 322.191C694.857 314.474 686.328 310.492 678.611 313.295L622.764 333.633C615.042 336.436 611.075 344.97 613.878 352.682C616.687 360.384 625.216 364.362 632.928 361.553Z" fill="#5B5B51"/>
<path d="M434.625 482.752C440.851 482.752 447.82 482.752 454.438 482.752V324.252C447.79 324.262 440.831 324.262 434.625 324.262V482.752Z" fill="#5B5B51"/>
<path d="M395 344.074V462.939C395 473.891 403.861 482.752 414.812 482.752C414.812 482.752 418.76 482.752 424.719 482.752V324.262C418.755 324.262 414.812 324.262 414.812 324.262C403.861 324.262 395 333.123 395 344.074Z" fill="#5B5B51"/>
<path d="M580.896 246.522C573.506 243.426 564.991 245.15 559.305 250.816L488.411 321.705C488.411 321.705 486.321 324.256 481.68 324.256C479.872 324.256 473.012 324.256 464.344 324.256V482.756C473.155 482.756 479.902 482.756 480.907 482.756C484.156 482.756 486.39 483.286 489.184 486.075C491.972 488.868 559.305 556.201 559.305 556.201C563.099 559.99 568.166 562.001 573.312 562.001C575.868 562.001 578.439 561.516 580.896 560.49C588.306 557.434 593.125 550.198 593.125 542.189V264.824C593.125 256.814 588.306 249.578 580.896 246.522Z" fill="#5B5B51"/>
<path d="M999.447 295.8H1033.95V303.9C1033.95 352.8 994.047 392.7 923.547 402.3L908.847 371.1C970.047 363.6 999.447 332.4 999.447 303.9V295.8ZM1010.85 295.8H1045.35V303.9C1045.35 332.4 1074.75 363.6 1135.95 371.1L1121.55 402.3C1050.75 392.7 1010.85 352.8 1010.85 303.9V295.8ZM1001.55 441H1041.15V543H1001.55V441ZM896.847 418.2H1147.95V450H896.847V418.2ZM919.047 279H1125.15V310.5H919.047V279ZM1228.02 405.9H1267.62V483.9H1228.02V405.9ZM1328.82 405.9H1368.72V483.9H1328.82V405.9ZM1172.82 478.2H1424.22V510.6H1172.82V478.2ZM1298.22 278.4C1357.92 278.4 1402.02 307.8 1402.02 353.1C1402.02 398.4 1357.92 427.5 1298.22 427.5C1238.22 427.5 1194.42 398.4 1194.42 353.1C1194.42 307.8 1238.22 278.4 1298.22 278.4ZM1298.22 309.6C1259.52 309.6 1233.72 325.5 1233.72 353.1C1233.72 380.4 1259.52 396.6 1298.22 396.6C1336.92 396.6 1362.72 380.4 1362.72 353.1C1362.72 325.5 1336.92 309.6 1298.22 309.6ZM1572.7 437.7C1632.7 437.7 1671.1 457.5 1671.1 490.5C1671.1 522.9 1632.7 542.7 1572.7 542.7C1512.7 542.7 1474.3 522.9 1474.3 490.5C1474.3 457.5 1512.7 437.7 1572.7 437.7ZM1572.7 467.7C1535.2 467.7 1513.9 475.5 1513.9 490.5C1513.9 505.2 1535.2 512.7 1572.7 512.7C1610.2 512.7 1631.5 505.2 1631.5 490.5C1631.5 475.5 1610.2 467.7 1572.7 467.7ZM1477.3 277.2H1653.1V308.7H1477.3V277.2ZM1449.1 388.8H1699.3V420.6H1449.1V388.8ZM1541.8 340.5H1581.4V396.9H1541.8V340.5ZM1630 277.2H1669.6V300C1669.6 321.9 1669.6 345.6 1662.1 374.4L1622.5 370.2C1630 341.7 1630 321.6 1630 300V277.2ZM1791.38 308.7H1823.18V339.9C1823.18 404.1 1797.08 466.8 1744.88 490.5L1722.38 459C1768.88 438.3 1791.38 387 1791.38 339.9V308.7ZM1800.38 308.7H1831.88V339.9C1831.88 384.9 1854.08 432.9 1900.58 452.1L1878.98 483.6C1826.18 460.8 1800.38 401.7 1800.38 339.9V308.7ZM1733.48 291.6H1889.18V324.3H1733.48V291.6ZM1914.98 264.9H1955.18V542.7H1914.98V264.9Z" fill="#5B5B51"/>
</svg>
