<svg width="800" height="800" viewBox="0 0 800 800" fill="none" xmlns="http://www.w3.org/2000/svg">
<g clip-path="url(#clip0_2_20)">
<path d="M762.5 362.5H612.5C591.788 362.5 575 379.3 575 400C575 420.7 591.788 437.5 612.5 437.5H762.5C783.212 437.5 800 420.7 800 400C800 379.3 783.212 362.5 762.5 362.5Z" fill="#E4CD87"/>
<path d="M741.4 557.125L600.462 505.825C580.975 498.75 559.475 508.775 552.388 528.238C545.313 547.675 555.325 569.2 574.8 576.288L715.75 627.6C735.225 634.675 756.725 624.625 763.813 605.188C770.9 585.738 760.875 564.213 741.4 557.125Z" fill="#E4CD87"/>
<path d="M600.45 294.138L741.4 242.838C760.863 235.763 770.888 214.225 763.813 194.8C756.738 175.325 735.213 165.275 715.738 172.35L574.8 223.675C555.313 230.75 545.3 252.288 552.375 271.75C559.463 291.188 580.988 301.225 600.45 294.138Z" fill="#E4CD87"/>
<path d="M100 600C115.712 600 133.3 600 150 600V200C133.225 200.025 115.663 200.025 100 200.025V600Z" fill="#E4CD87"/>
<path d="M0 250.025V550C0 577.637 22.3625 600 50 600C50 600 59.9625 600 75 600V200.025C59.95 200.025 50 200.025 50 200.025C22.3625 200.025 0 222.387 0 250.025Z" fill="#E4CD87"/>
<path d="M469.137 3.83751C450.487 -3.97499 429 0.375011 414.65 14.675L235.737 193.575C235.737 193.575 230.462 200.012 218.75 200.012C214.187 200.012 196.875 200.012 175 200.012V600.013C197.238 600.013 214.262 600.013 216.8 600.013C225 600.013 230.637 601.35 237.687 608.388C244.725 615.438 414.65 785.363 414.65 785.363C424.225 794.925 437.012 800 450 800C456.45 800 462.937 798.775 469.137 796.188C487.837 788.475 500 770.213 500 750V50.025C500 29.8125 487.837 11.55 469.137 3.83751Z" fill="#E4CD87"/>
</g>
<defs>
<clipPath id="clip0_2_20">
<rect width="800" height="800" fill="white"/>
</clipPath>
</defs>
</svg>
