<?xml version="1.0" encoding="utf-8"?>
<!-- Generator: Adobe Illustrator 24.3.0, SVG Export Plug-In . SVG Version: 6.00 Build 0)  -->
<svg version="1.1" id="Layer_2_1_" xmlns="http://www.w3.org/2000/svg" xmlns:xlink="http://www.w3.org/1999/xlink" x="0px" y="0px"
	 viewBox="0 0 50 45" style="enable-background:new 0 0 50 45;" xml:space="preserve">
<style type="text/css">
	.st0{fill:url(#SVGID_1_);}
</style>
<linearGradient id="SVGID_1_" gradientUnits="userSpaceOnUse" x1="25.0013" y1="41.0705" x2="25.0013" y2="3.9248">
	<stop  offset="0" style="stop-color:#AD8835"/>
	<stop  offset="1" style="stop-color:#E2CB86"/>
</linearGradient>
<path class="st0" d="M46,16.6c-0.2-0.2-0.4-0.3-0.6-0.3H33.2c1.6,0,3.2-0.6,4.4-1.8c1.2-1.1,1.8-2.7,1.8-4.4c0-1.6-0.6-3.2-1.8-4.4
	c-1.1-1.2-2.7-1.8-4.4-1.8c-1.8-0.1-3.5,0.7-4.6,2.1L25,10.6l-3.5-4.6c-1.1-1.4-2.8-2.2-4.6-2.1c-1.6,0-3.2,0.6-4.4,1.8
	c-1.2,1.1-1.8,2.7-1.8,4.4c0,1.6,0.6,3.2,1.8,4.4c1.1,1.2,2.7,1.8,4.4,1.8H4.7c-0.5,0-0.9,0.3-0.9,0.8c0,0,0,0,0,0.1V26
	c0,0.5,0.3,0.9,0.8,0.9c0,0,0,0,0.1,0h2.7v11.5c0,1.5,1.1,2.7,2.6,2.7c0,0,0.1,0,0.1,0h30c1.5,0,2.6-1.2,2.7-2.6c0,0,0,0,0,0V26.9
	h2.7c0.5,0,0.9-0.3,0.9-0.8c0,0,0-0.1,0-0.1v-8.8C46.2,17,46.2,16.7,46,16.6z M31.3,8.3c0.5-0.6,1.2-0.9,1.9-0.9
	c1.5,0,2.6,1.2,2.7,2.6c0,0,0,0,0,0c0,1.5-1.2,2.6-2.6,2.7c0,0,0,0,0,0h-5.4L31.3,8.3z M16.8,12.8c-1.5,0-2.6-1.2-2.6-2.6
	c0,0,0,0,0,0c0-1.5,1.2-2.6,2.6-2.7c0,0,0,0,0,0c0.7,0,1.4,0.3,1.9,0.9l3.5,4.4L16.8,12.8L16.8,12.8z M29.4,21.6v14.5
	c0,0.4-0.2,0.8-0.5,1.1c-0.4,0.3-0.8,0.4-1.3,0.4h-5.3c-0.5,0-0.9-0.1-1.3-0.4c-0.3-0.2-0.5-0.6-0.5-1.1V16.3h8.8V21.6L29.4,21.6z"
	/>
</svg>
