<?xml version="1.0" encoding="utf-8"?>
<!-- Generator: Adobe Illustrator 24.3.0, SVG Export Plug-In . SVG Version: 6.00 Build 0)  -->
<svg version="1.1" id="Layer_2_1_" xmlns="http://www.w3.org/2000/svg" xmlns:xlink="http://www.w3.org/1999/xlink" x="0px" y="0px"
	 viewBox="0 0 50 45" style="enable-background:new 0 0 50 45;" xml:space="preserve">
<style type="text/css">
	.st0{fill:url(#SVGID_1_);}
	.st1{fill:url(#SVGID_2_);}
	.st2{fill:url(#SVGID_3_);}
	.st3{fill:url(#SVGID_4_);}
</style>
<linearGradient id="SVGID_1_" gradientUnits="userSpaceOnUse" x1="31.1096" y1="34.49" x2="31.1096" y2="3.43">
	<stop  offset="0" style="stop-color:#AD8835"/>
	<stop  offset="1" style="stop-color:#E2CB86"/>
</linearGradient>
<path class="st0" d="M28.5,3.4c-3.9,0-7.6,1.4-10.5,4c0.6,1,1,2.1,1,3.3l0,0c0,0.5,0,1.1,0.1,1.6C22.9,7.2,30.2,6,35.4,9.8
	s6.4,11.1,2.6,16.3c-2.2,3-5.6,4.7-9.2,4.8c0.6,0.5,1.2,0.9,1.8,1.4l0,0c0.8,0.6,1.5,1.4,2,2.3c8.4-2.3,13.4-10.9,11.2-19.4
	C41.8,8.3,35.6,3.5,28.5,3.4z"/>
<linearGradient id="SVGID_2_" gradientUnits="userSpaceOnUse" x1="17.4054" y1="41.5871" x2="17.4054" y2="8.6699">
	<stop  offset="0" style="stop-color:#AD8835"/>
	<stop  offset="1" style="stop-color:#E2CB86"/>
</linearGradient>
<path class="st1" d="M28.1,35.6c-1.8-1.4-2.9-2.4-4.5-3.9c-0.4-0.5-1-0.7-1.7-0.8c-0.5,0-0.9,0.2-1.3,0.5l-1.1,1
	c-3.1-3.7-5.4-8-6.8-12.6l1.4-0.4c1-0.4,1.6-1.5,1.4-2.6c-0.3-2.5-0.5-3.7-0.7-5.9c0-1.1-0.9-2.1-2-2.2h-0.5
	c-4.1,0-7.6,4.7-6.3,10.5c1.6,7.2,5.2,13.8,10.3,19.2c1.8,2,4.3,3.1,6.9,3.2c2.3,0.1,4.5-1.1,5.6-3.1C29.4,37.5,29,36.3,28.1,35.6z"
	/>
<linearGradient id="SVGID_3_" gradientUnits="userSpaceOnUse" x1="24.5387" y1="24.26" x2="24.5387" y2="13.7456">
	<stop  offset="0" style="stop-color:#AD8835"/>
	<stop  offset="1" style="stop-color:#E2CB86"/>
</linearGradient>
<path class="st2" d="M23.7,19.5c-0.8,0.7-1.6,1.5-2.2,2.4c-0.3,0.4-0.4,0.9-0.6,1.4c-0.1,0.4,0.1,0.8,0.5,0.9c0.1,0,0.1,0,0.2,0h5.2
	c0.6,0,1.2-0.5,1.2-1.2c0-0.6-0.5-1.2-1.2-1.2h-2.4l0.1-0.1c0.1-0.2,0.5-0.5,1.1-1.1c0.4-0.4,0.9-0.8,1.3-1.3
	c0.3-0.4,0.6-0.9,0.8-1.3c0.2-0.4,0.3-0.9,0.3-1.4c0-0.8-0.3-1.6-0.9-2.2c-0.7-0.6-1.6-0.9-2.5-0.9c-0.9,0-1.7,0.2-2.4,0.7
	c-0.4,0.3-0.7,0.7-0.9,1.2c-0.2,0.6,0.1,1.3,0.7,1.6c0.1,0,0.2,0.1,0.3,0.1h0.1c0.5,0,1-0.3,1.2-0.8c0-0.1,0.1-0.3,0.2-0.4
	c0.2-0.2,0.5-0.3,0.8-0.3c0.3,0,0.5,0.1,0.8,0.3c0.2,0.2,0.3,0.5,0.3,0.8c0,0.4-0.1,0.7-0.4,1C24.8,18.5,24.3,19,23.7,19.5z"/>
<linearGradient id="SVGID_4_" gradientUnits="userSpaceOnUse" x1="32.3275" y1="24.4195" x2="32.3275" y2="13.76">
	<stop  offset="0" style="stop-color:#AD8835"/>
	<stop  offset="1" style="stop-color:#E2CB86"/>
</linearGradient>
<path class="st3" d="M34.2,13.8h-0.9c-0.2,0-0.5,0.1-0.6,0.3l-4,5.9c-0.1,0.2-0.2,0.4-0.2,0.6v1c0,0.4,0.3,0.8,0.8,0.8h3.3v0.8
	c-0.1,0.7,0.4,1.2,1.1,1.3c0.7,0.1,1.2-0.4,1.3-1.1c0-0.1,0-0.1,0-0.2v-0.8H35c0.6,0,1.2-0.5,1.2-1.2c0-0.6-0.5-1.2-1.2-1.2h-0.1
	v-5.5C34.9,14.1,34.6,13.8,34.2,13.8z M32.5,20H31l1.5-2.2V20z"/>
</svg>
