<?xml version="1.0" encoding="utf-8"?>
<!-- Generator: Adobe Illustrator 24.3.0, SVG Export Plug-In . SVG Version: 6.00 Build 0)  -->
<svg version="1.1" id="Layer_2_1_" xmlns="http://www.w3.org/2000/svg" xmlns:xlink="http://www.w3.org/1999/xlink" x="0px" y="0px"
	 viewBox="0 0 50 45" style="enable-background:new 0 0 50 45;" xml:space="preserve">
<style type="text/css">
	.st0{fill:url(#SVGID_1_);}
	.st1{fill:url(#SVGID_2_);}
</style>
<linearGradient id="SVGID_1_" gradientUnits="userSpaceOnUse" x1="24.9889" y1="27.04" x2="24.9889" y2="5.7931">
	<stop  offset="0" style="stop-color:#AD8835"/>
	<stop  offset="1" style="stop-color:#E2CB86"/>
</linearGradient>
<path class="st0" d="M7.8,16.1l4.9,3.4l6.2,4.3l1,0.7c0.5,0.4,0.9,0.7,1.3,0.9c0.3,0.2,0.8,0.5,1.2,0.8c0.4,0.3,0.9,0.5,1.4,0.6
	C24.2,27,24.6,27,25,27l0,0c0.4,0,0.8-0.1,1.2-0.2c0.5-0.2,0.9-0.4,1.4-0.6c0.5-0.3,0.9-0.5,1.2-0.8s0.8-0.5,1.3-0.9l1-0.7l11.2-7.7
	c1.1-0.8,2.1-1.8,2.9-2.9c0.7-1,1.1-2.3,1.2-3.6c0-2.1-1.7-3.8-3.8-3.8H7.5C6.5,5.7,5.4,6.2,4.7,7c-0.7,0.9-1,2-1,3.1
	c0.1,1.2,0.5,2.3,1.3,3.2C5.8,14.4,6.7,15.3,7.8,16.1z"/>
<linearGradient id="SVGID_2_" gradientUnits="userSpaceOnUse" x1="25.0248" y1="39.2" x2="25.0248" y2="16.57">
	<stop  offset="0" style="stop-color:#AD8835"/>
	<stop  offset="1" style="stop-color:#E2CB86"/>
</linearGradient>
<path class="st1" d="M43.9,18.6c-5.2,3.5-9.1,6.2-11.8,8.2c-0.9,0.7-1.6,1.2-2.2,1.5c-0.7,0.4-1.5,0.8-2.2,1.1
	c-0.8,0.4-1.7,0.6-2.6,0.6l0,0c-0.9,0-1.8-0.2-2.6-0.6c-0.8-0.3-1.5-0.7-2.2-1.1c-0.6-0.4-1.3-0.9-2.2-1.5
	c-2.1-1.6-6.1-4.3-11.8-8.2c-0.9-0.6-1.7-1.3-2.4-2.1v18.8c0,1,0.4,2,1.1,2.7c0.7,0.7,1.6,1.1,2.6,1.1h34.9c2.1,0,3.8-1.7,3.8-3.8
	V16.6C45.5,17.3,44.7,18,43.9,18.6z"/>
</svg>
