<?xml version="1.0" encoding="utf-8"?>
<!-- Generator: Adobe Illustrator 24.3.0, SVG Export Plug-In . SVG Version: 6.00 Build 0)  -->
<svg version="1.1" id="Layer_2_1_" xmlns="http://www.w3.org/2000/svg" xmlns:xlink="http://www.w3.org/1999/xlink" x="0px" y="0px"
	 viewBox="0 0 50 45" style="enable-background:new 0 0 50 45;" xml:space="preserve">
<style type="text/css">
	.st0{fill:url(#SVGID_1_);}
</style>
<linearGradient id="SVGID_1_" gradientUnits="userSpaceOnUse" x1="25.0196" y1="41" x2="25.0196" y2="4.0588">
	<stop  offset="0" style="stop-color:#AD8835"/>
	<stop  offset="1" style="stop-color:#E2CB86"/>
</linearGradient>
<path class="st0" d="M45.3,5.1c-0.7-0.7-1.6-1-2.5-1H7.2c-0.9,0-1.8,0.3-2.5,1c-0.7,0.7-1,1.6-1,2.5v24.2c0,0.9,0.3,1.8,1,2.5
	c0.7,0.7,1.6,1,2.5,1h12.1c0,0.6-0.1,1.2-0.3,1.8c-0.2,0.5-0.4,1-0.7,1.5c-0.2,0.3-0.3,0.6-0.4,1c0,0.8,0.6,1.4,1.4,1.5h11.4
	c0.8,0,1.4-0.6,1.4-1.4c0-0.4-0.2-0.7-0.4-1c-0.3-0.5-0.5-1-0.8-1.6c-0.2-0.5-0.3-1.1-0.4-1.7h12.1c2,0,3.5-1.6,3.5-3.5V7.6
	C46.3,6.6,46,5.7,45.3,5.1z M43.5,26.1c0,0.4-0.3,0.7-0.7,0.7H7.2c-0.4,0-0.7-0.3-0.7-0.7V7.6c0-0.4,0.3-0.7,0.7-0.7h35.5
	c0.4,0,0.7,0.3,0.7,0.7V26.1L43.5,26.1L43.5,26.1z"/>
</svg>
